<svg width="152" height="10" viewBox="0 0 152 10" fill="none" xmlns="http://www.w3.org/2000/svg">
<path d="M152 5L144.5 0.669873V9.33013L152 5ZM0 5.75H1.52V4.25H0V5.75ZM4.56 5.75H7.6V4.25H4.56V5.75ZM10.64 5.75H13.68V4.25H10.64V5.75ZM16.72 5.75H19.76V4.25H16.72V5.75ZM22.8 5.75H25.84V4.25H22.8V5.75ZM28.88 5.75H31.92V4.25H28.88V5.75ZM34.96 5.75H38V4.25H34.96V5.75ZM41.04 5.75H44.08V4.25H41.04V5.75ZM47.12 5.75H50.16V4.25H47.12V5.75ZM53.2 5.75H56.24V4.25H53.2V5.75ZM59.28 5.75H62.32V4.25H59.28V5.75ZM65.36 5.75H68.4V4.25H65.36V5.75ZM71.44 5.75H74.48V4.25H71.44V5.75ZM77.52 5.75H80.56V4.25H77.52V5.75ZM83.6 5.75H86.64V4.25H83.6V5.75ZM89.68 5.75H92.72V4.25H89.68V5.75ZM95.76 5.75H98.8V4.25H95.76V5.75ZM101.84 5.75H104.88V4.25H101.84V5.75ZM107.92 5.75H110.96V4.25H107.92V5.75ZM114 5.75H117.04V4.25H114V5.75ZM120.08 5.75H123.12V4.25H120.08V5.75ZM126.16 5.75H129.2V4.25H126.16V5.75ZM132.24 5.75H135.28V4.25H132.24V5.75ZM138.32 5.75H141.36V4.25H138.32V5.75ZM144.4 5.75H147.44V4.25H144.4V5.75ZM152 5L144.5 0.669873V9.33013L152 5ZM0 5.75H1.52V4.25H0V5.75ZM4.56 5.75H7.6V4.25H4.56V5.75ZM10.64 5.75H13.68V4.25H10.64V5.75ZM16.72 5.75H19.76V4.25H16.72V5.75ZM22.8 5.75H25.84V4.25H22.8V5.75ZM28.88 5.75H31.92V4.25H28.88V5.75ZM34.96 5.75H38V4.25H34.96V5.75ZM41.04 5.75H44.08V4.25H41.04V5.75ZM47.12 5.75H50.16V4.25H47.12V5.75ZM53.2 5.75H56.24V4.25H53.2V5.75ZM59.28 5.75H62.32V4.25H59.28V5.75ZM65.36 5.75H68.4V4.25H65.36V5.75ZM71.44 5.75H74.48V4.25H71.44V5.75ZM77.52 5.75H80.56V4.25H77.52V5.75ZM83.6 5.75H86.64V4.25H83.6V5.75ZM89.68 5.75H92.72V4.25H89.68V5.75ZM95.76 5.75H98.8V4.25H95.76V5.75ZM101.84 5.75H104.88V4.25H101.84V5.75ZM107.92 5.75H110.96V4.25H107.92V5.75ZM114 5.75H117.04V4.25H114V5.75ZM120.08 5.75H123.12V4.25H120.08V5.75ZM126.16 5.75H129.2V4.25H126.16V5.75ZM132.24 5.75H135.28V4.25H132.24V5.75ZM138.32 5.75H141.36V4.25H138.32V5.75ZM144.4 5.75H147.44V4.25H144.4V5.75Z" fill="#7D7D7D"/>
</svg>
